<svg xmlns="http://www.w3.org/2000/svg" xmlns:xlink="http://www.w3.org/1999/xlink" width="2723" height="947" viewBox="0 0 2723 947"><defs><clipPath id="clip-quiz"><rect width="2723" height="947"/></clipPath></defs><g id="quiz" clip-path="url(#clip-quiz)"><rect width="2723" height="947" fill="#fff"/><path id="Path_1" fill="#222" d="M56.221-254.562q42.009-43.054,105.963-43.054t105.963,43.054q42.009,43.054,42.009,108.262,0,48.906-25.916,88.2l41.382,35.53L293.436,14.212l-43.054-37.2q-37.62,28.006-88.2,28.006-63.954,0-105.963-43.054T14.212-146.3Q14.212-211.508,56.221-254.562ZM161.766-100.32l32.186-36.366,51.832,45.144Q259.16-115.786,259.16-146.3q0-43.472-26.961-73.568t-70.015-30.1q-43.054,0-70.015,30.1T65.208-146.3q0,43.472,26.961,73.568t70.015,30.1q27.588,0,50.16-13.376ZM428.45,5.016q-30.1,0-51.414-20.273T355.718-69.806V-198.132h50.16V-83.6q0,41.8,39.292,41.8A40.212,40.212,0,0,0,466.7-47.861q9.823-6.061,13.585-12.331l4.18-5.852V-198.132h50.16V0H487.806V-28.842q-.836,1.254-2.3,3.553a72.789,72.789,0,0,1-6.9,8.151A73.42,73.42,0,0,1,466.906-6.9a71.9,71.9,0,0,1-16.72,8.151A63.685,63.685,0,0,1,428.45,5.016ZM592.724,0V-198.132h50.16V0ZM594.4-238.678a31.858,31.858,0,0,1-9.614-23.408,31.858,31.858,0,0,1,9.614-23.408,31.858,31.858,0,0,1,23.408-9.614,31.858,31.858,0,0,1,23.408,9.614,31.858,31.858,0,0,1,9.614,23.408,31.858,31.858,0,0,1-9.614,23.408,31.858,31.858,0,0,1-23.408,9.614A31.858,31.858,0,0,1,594.4-238.678Zm101.156,40.546h176.4L773.718-46.816H867.35V0h-178.9l98.23-151.316H695.552ZM1008.216,0l113.7-292.6h51L1286.6,0h-50.578l-26.752-69.388H1085.546L1058.794,0ZM1147.41-229.482l-43.89,114.114h87.78Zm166.782,31.35h46.4v25.916q.836-1.254,2.3-3.344a73.154,73.154,0,0,1,6.9-7.524,67.94,67.94,0,0,1,11.7-9.4,72.93,72.93,0,0,1,16.929-7.315,72.885,72.885,0,0,1,21.945-3.344q39.292,0,67.925,29.678t28.633,74.4q0,44.726-28.633,74.4T1420.364,5.016q-35.53,0-56.012-25.5V96.14h-50.16Zm50.16,69.388v59.356q1.672,2.926,4.807,7.524t15.466,12.331a49.768,49.768,0,0,0,26.961,7.733q25.08,0,39.71-16.093t14.63-41.173q0-25.08-14.63-41.173t-39.71-16.093a52.756,52.756,0,0,0-17.556,2.926,49.376,49.376,0,0,0-13.585,6.9,74.213,74.213,0,0,0-8.987,7.942,38.312,38.312,0,0,0-5.434,6.9Zm189.354-69.388h46.4v25.916q.836-1.254,2.3-3.344a73.154,73.154,0,0,1,6.9-7.524,67.94,67.94,0,0,1,11.7-9.4,72.93,72.93,0,0,1,16.929-7.315,72.884,72.884,0,0,1,21.945-3.344q39.292,0,67.925,29.678t28.633,74.4q0,44.726-28.633,74.4T1659.878,5.016q-35.53,0-56.012-25.5V96.14h-50.16Zm50.16,69.388v59.356q1.672,2.926,4.807,7.524t15.466,12.331A49.767,49.767,0,0,0,1651.1-41.8q25.08,0,39.71-16.093t14.63-41.173q0-25.08-14.63-41.173t-39.71-16.093a52.756,52.756,0,0,0-17.556,2.926,49.376,49.376,0,0,0-13.585,6.9,74.2,74.2,0,0,0-8.987,7.942,38.308,38.308,0,0,0-5.434,6.9Z" data-name="Path 1" transform="translate(123 501)"/><path id="Path_2" fill="#222" d="M13.172-124.6H32.93L73.514-61.944,114.1-124.6h19.758V0H112.5V-83.66L73.514-24.386,34.532-83.66V0H13.172ZM162.692,0V-124.6h21.36V0Zm50.2-124.6h19.224l62.3,85.8v-85.8h21.36V0H296.548l-62.3-85.618V0h-21.36Zm150.588,20.292v30.26h49.84v20.292h-49.84v33.464h55.18V0h-76.54V-124.6h75.472v20.292ZM462.978,0V-104.308H428.624V-124.6h90.068v20.292H484.338V0ZM654.862,0,626.916-46.992,599.682,0h-24.03L615.88-64.436,578.144-124.6H603.42l25.454,43.076,25.1-43.076h23.5L639.732-64.436,680.316,0ZM741.9,0,787.65-58.028q.534-.534,3.2-3.827t4.005-5.34q1.335-2.047,3.382-5.518a25.988,25.988,0,0,0,2.937-7.209,32.932,32.932,0,0,0,.89-7.654A19.663,19.663,0,0,0,797-101.1q-5.073-5.7-13.439-5.7a22.66,22.66,0,0,0-9.345,1.869,18.32,18.32,0,0,0-6.5,4.539,33.186,33.186,0,0,0-3.827,5.34,20.936,20.936,0,0,0-2.047,4.628l-.534,1.78L742.26-95.586q.356-1.246,1.068-3.382a46.738,46.738,0,0,1,3.916-7.476,46.825,46.825,0,0,1,7.387-9.434,39.687,39.687,0,0,1,11.926-7.476,42.01,42.01,0,0,1,17-3.382q19.224,0,29.548,11.125t10.324,27.679q0,15.842-10.858,30.616L783.912-20.292h40.05V0ZM887.686-126.736a40.481,40.481,0,0,1,20.648,5.251,40.688,40.688,0,0,1,14.6,14.329,75.385,75.385,0,0,1,8.455,20.47A97.4,97.4,0,0,1,934.322-62.3a97.4,97.4,0,0,1-2.937,24.386,75.385,75.385,0,0,1-8.455,20.47,40.688,40.688,0,0,1-14.6,14.329,40.481,40.481,0,0,1-20.648,5.251,39.312,39.312,0,0,1-26.077-9.167,52.41,52.41,0,0,1-15.931-23.5A96.213,96.213,0,0,1,840.694-62.3a96.213,96.213,0,0,1,4.984-31.773,52.41,52.41,0,0,1,15.931-23.5A39.312,39.312,0,0,1,887.686-126.736Zm0,108.936q12.282,0,18.779-12.549t6.5-31.951q0-19.4-6.5-31.951T887.686-106.8q-12.46,0-19.046,12.549T862.054-62.3q0,19.4,6.586,31.951T887.686-17.8ZM948.562,0l45.746-58.028q.534-.534,3.2-3.827t4.005-5.34q1.335-2.047,3.382-5.518a25.988,25.988,0,0,0,2.937-7.209,32.932,32.932,0,0,0,.89-7.654,19.663,19.663,0,0,0-5.073-13.528q-5.073-5.7-13.439-5.7a22.66,22.66,0,0,0-9.345,1.869,18.32,18.32,0,0,0-6.5,4.539,33.186,33.186,0,0,0-3.827,5.34,20.936,20.936,0,0,0-2.047,4.628l-.534,1.78-19.046-6.942q.356-1.246,1.068-3.382a46.738,46.738,0,0,1,3.916-7.476,46.825,46.825,0,0,1,7.387-9.434,39.687,39.687,0,0,1,11.926-7.476,42.01,42.01,0,0,1,17-3.382q19.224,0,29.548,11.125t10.324,27.679q0,15.842-10.858,30.616L990.57-20.292h40.05V0Zm145.782-126.736a40.481,40.481,0,0,1,20.648,5.251,40.687,40.687,0,0,1,14.6,14.329,75.384,75.384,0,0,1,8.455,20.47A97.4,97.4,0,0,1,1140.98-62.3a97.4,97.4,0,0,1-2.937,24.386,75.383,75.383,0,0,1-8.455,20.47,40.687,40.687,0,0,1-14.6,14.329,40.481,40.481,0,0,1-20.648,5.251,39.312,39.312,0,0,1-26.077-9.167,52.41,52.41,0,0,1-15.931-23.5,96.215,96.215,0,0,1-4.984-31.773,96.215,96.215,0,0,1,4.984-31.773,52.41,52.41,0,0,1,15.931-23.5A39.312,39.312,0,0,1,1094.344-126.736Zm0,108.936q12.282,0,18.779-12.549t6.5-31.951q0-19.4-6.5-31.951T1094.344-106.8q-12.46,0-19.046,12.549T1068.712-62.3q0,19.4,6.586,31.951T1094.344-17.8Z" data-name="Path 2" opacity=".75" transform="translate(153 802)"/></g></svg>